<svg xmlns="http://www.w3.org/2000/svg" viewBox="0 0 32 32" id="CloudUpload"><path d="M27 9h-.1a5 5 0 0 0-3.76-3.86 3 3 0 0 0-2.09 2.38 1 1 0 0 1-1 .83h-.15a1 1 0 0 1-.83-1.15 5 5 0 0 1 2.08-3.28A8 8 0 0 0 7.39 6.54 3.53 3.53 0 0 0 4.7 9a4 4 0 0 0 .3 8h3.47l5.13-6.81A3 3 0 0 1 16 9h.2a3 3 0 0 1 2.21 1.2l5.06 6.8H27a4 4 0 0 0 0-8Z" fill="#595959" class="color000000 svgShape"></path><path d="M16.8 11.4a1.09 1.09 0 0 0-.8-.4 1 1 0 0 0-.8.4l-6 8A1 1 0 0 0 10 21h3v8a2 2 0 0 0 2 2h2a2 2 0 0 0 2-2v-8h3a1 1 0 0 0 .89-.55 1 1 0 0 0-.09-1.05Z" fill="#595959" class="color000000 svgShape"></path></svg>